<svg width="96" height="70" viewBox="0 0 96 70" fill="none" xmlns="http://www.w3.org/2000/svg">
<path d="M3.20833 70L0.291667 65.9167C7.72917 65.9167 22.6042 61.6875 30.0417 53.375C33.6875 49.4375 35.5833 45.7917 35.5833 42.875C33.5417 45.0625 27.5625 46.9583 21.5833 46.9583C8.89583 46.9583 0 36.75 0 24.2083C0 10.0625 9.77083 0 24.5 0C34.7083 0 43.3125 5.39583 47.25 14.2917C50.8958 5.39583 58.9167 0 70 0C84.5833 0 95.6667 10.5 95.6667 29.1667C95.6667 44.0417 85.3125 58.7708 70.5833 65.1875C63.1458 68.3958 55.8542 70 48.7083 70L45.7917 65.9167C53.2292 65.9167 68.1042 61.6875 75.5417 53.375C79.1875 49.4375 81.0833 45.7917 81.0833 42.875C79.0417 45.0625 73.0625 46.9583 67.0833 46.9583C59.3542 46.9583 53.375 43.75 49.2917 37.3333C46.2292 50.1667 36.0208 61.25 22.6042 66.2083C15.8958 68.6875 9.47917 70 3.20833 70Z" fill="black"/>
</svg>
